# xmcd
#
# Track frame offsets:
#	150
#	12685
#	27598
#	43248
#	52730
#	68028
#	84184
#	101336
#	116570
#	129350
#	146149
#	160690
#	177950
#	184126
#	199070
#	214719
#	230060
#
# Disc length: 3222 seconds
#
# Revision: 0
# Processed by: cddbd v1.5.2PL0 Copyright (c) Steve Scherf et al.
# Submitted via: EZCDAudioConverter 1.3.3.1
#
DISCID=eb0c9411
DTITLE=Linssen, Joris and Caramba - Vurig (Live)
DYEAR=2011
DGENRE=TexMex
TTITLE0=Storm
TTITLE1=Als de jaren verstrijken
TTITLE2=Tijd voor spijt
TTITLE3=Kompas
TTITLE4=Uitgeblust
TTITLE5=Ergens in de stad
TTITLE6=Grootste vergissing
TTITLE7=Ik verafgood
TTITLE8=Rotonde
TTITLE9=Als jij ooit bij me terug komt
TTITLE10=Denk aan mij
TTITLE11=Knap waardeloos
TTITLE12=Liefde maakt blind
TTITLE13=Ik denk alleen nog aan jouw
TTITLE14=Hou me vast
TTITLE15=Vuur
TTITLE16=Brandend verlangen
EXTD=
EXTT0=
EXTT1=
EXTT2=
EXTT3=
EXTT4=
EXTT5=
EXTT6=
EXTT7=
EXTT8=
EXTT9=
EXTT10=
EXTT11=
EXTT12=
EXTT13=
EXTT14=
EXTT15=
EXTT16=
PLAYORDER=
